<svg xmlns="http://www.w3.org/2000/svg" version="1.2" viewBox="0 0 209 18" width="209" height="18"><path d="M16.6 15.4v2.4H0v-2.4s0-4.6 8.3-4.6 8.3 4.6 8.3 4.6zM12.4 4.3q0 .8-.3 1.6-.3.7-.9 1.3-.6.6-1.3.9-.8.3-1.6.3c-1.7 0-3.2-1-3.8-2.5q-.3-.6-.3-1.2-.1-.6 0-1.2t.4-1.1q.3-.6.8-1 .4-.4.9-.7.6-.3 1.2-.4.6-.1 1.2-.1.6.1 1.2.3c1.5.7 2.5 2.1 2.5 3.8z" style="fill:#00b951;fill-rule:evenodd"/><path d="M23.7 15.4v2.4H19v-2.4q-.1-.6-.3-1.3-.1-.7-.4-1.3-.4-.6-.8-1.1-.4-.5-1-.9c7.2.4 7.2 4.6 7.2 4.6zM14.8.2l-1.2.4q-.2.1-.5.3.5.7.8 1.6.3.9.3 1.8t-.3 1.8q0 .2-.1.4l-.4.8q-.2.2-.3.4.3.2.5.3.2.1.3.1.2.1.3.1.1.1.3.1.1 0 .3.1h.6c1.1 0 2.1-.4 2.9-1.2.8-.8 1.2-1.8 1.2-2.9 0-1.1-.4-2.1-1.2-2.9C17.6.6 16.5.2 15.4.2Z" style="opacity:.7;fill:#00b951;fill-rule:evenodd"/><path d="M30.8 15.5v2.3H26v-2.4q0-.6-.2-1.3-.1-.7-.4-1.3-.4-.6-.8-1.1-.4-.5-1-.9c7.2.4 7.2 4.7 7.2 4.7zM21.9.2l-1.2.4q-.2.1-.5.3.6.8.8 1.6.3.9.3 1.8T21 6.1q-.2.9-.8 1.6.3.2.5.3.2.1.3.1.2.1.3.1.1.1.3.1.1 0 .3.1h.6c1.1 0 2.2-.4 2.9-1.2q.6-.6.9-1.3.3-.8.3-1.6t-.3-1.6q-.3-.7-.9-1.3C24.7.6 23.6.2 22.5.2q-.3 0-.6.1z" style="opacity:.5;fill:#00b951;fill-rule:evenodd"/><path aria-label="CROWD" d="M44.3.55q1.5 0 2.5.5 1 .4 1.7 1 .5.3.7.1.3-.3.4-1.3h.5q0 .9-.1 2.2v3.5h-.5q-.1-1.1-.3-1.9-.2-.8-.6-1.4-.3-.7-1-1.1-.5-.5-1.2-.7-.7-.3-1.3-.3-1.3 0-2.2.8-.8.6-1.4 1.8-.5 1.1-.7 2.5-.2 1.4-.2 2.8t.2 2.8q.2 1.4.8 2.5.5 1.2 1.4 1.9.8.6 2.1.6.7 0 1.3-.2.7-.2 1.2-.7 1-.7 1.4-1.8.3-1.1.5-2.9h.5v3.6q.1 1.4.1 2.3h-.5q-.1-1-.3-1.2-.2-.3-.8 0-.8.6-1.8 1.1-.9.4-2.4.4-2.5 0-4.4-1-1.9-1-3-2.8-1-1.9-1-4.5t1.1-4.5q1.1-1.9 2.9-3 2-1.1 4.4-1.1zm7.8.8v-.5q.6 0 1.6.1H58q1-.1 1.4-.1 2.3 0 3.8.5 1.4.5 2.2 1.4.7.8.7 2.1 0 .9-.3 1.7-.4.8-1.2 1.4-.8.7-2.2 1.1-1.3.4-3.5.4h-2.2v-.5h2q1.3 0 1.9-.5.7-.5.9-1.4.3-.8.3-1.9 0-1.8-.6-2.8-.6-1-2-1-.8 0-1.1.4-.2.4-.2 1.6v11.4q0 .8.1 1.2.2.4.5.6.4.1 1.1.1v.5h-1.7q-1-.1-2-.1-1.1 0-2.2.1h-1.6v-.5q.7 0 1-.1.4-.2.5-.6.1-.4.1-1.2V3.35q0-.9-.1-1.3t-.5-.5q-.3-.2-1-.2zm4.6 8.1-.1-.4q.9 0 1.7.1.7 0 1.3.1.6.1 1 .1 2.3.1 3.4.9 1.1.7 1.4 2.1l.5 2.4q.2.9.4 1.2.3.4.7.3h.4l.4-.4.3.3q-.6.7-1.4 1-.8.3-1.8.3-1.4 0-2.3-.5-.8-.5-1.1-2l-.3-2.3q-.2-.9-.4-1.6-.2-.8-.6-1.2-.4-.4-1-.4zM76.9.55q2.5 0 4.4 1 1.9 1 2.9 2.8 1.1 1.9 1.1 4.5t-1.1 4.5q-1.1 2-3 3-1.9 1.1-4.3 1.1-2.5 0-4.4-1-1.9-1-3-2.8-1-1.9-1-4.5t1.1-4.5q1.1-1.9 2.9-3 1.9-1.1 4.4-1.1zm-.1.4q-1.2 0-2.1 1-.9 1.1-1.4 2.9-.5 1.8-.5 4.2 0 2.4.5 4.3.6 1.8 1.6 2.7.9 1 2.1 1 1.2 0 2.1-1 .9-1.1 1.4-2.9.5-1.8.5-4.2 0-2.4-.6-4.2-.5-1.8-1.5-2.8-1-1-2.1-1zm31.8-.1v.5q-.5.2-1.1.9-.5.6-.9 2l-4 12.9h-2l-4.9-14.7q-.2-.6-.5-.8-.3-.3-.7-.3v-.5q.7 0 1.7.1h3.9q.9-.1 1.5-.1v.5q-.7 0-1.1.1-.4.2-.4.6-.1.4.2 1.2l3.2 9.8-.6 1.2 2.4-7.9q.6-1.9.6-3t-.5-1.5q-.5-.5-1.5-.5v-.5q.9 0 1.5.1h2.4q.5-.1.8-.1zm-16.5 0v.5q-.4 0-.6.3-.1.3-.1.8l.2.8 3.5 10-.6.9 2.8-8 .3.6-3.5 10.4h-2l-5.3-14.4q-.3-.8-.7-1.1-.4-.3-.7-.3v-.5q.8 0 1.8.1h3.7q.7-.1 1.2-.1zm24.5 0q4.7 0 6.9 2.1 2.3 2 2.3 5.9 0 2.5-1.1 4.4-1.1 1.8-3.3 2.9-2.1 1-5 1h-2.3q-.6-.1-1.1-.1-1.1 0-2.2.1h-1.6v-.5q.7 0 1-.1.4-.2.5-.6.2-.4.2-1.2V3.35q0-.9-.2-1.3-.1-.4-.5-.5-.3-.2-1-.2v-.5q.6 0 1.6.1h2.1q.8 0 1.9-.1zm.1.4q-1 0-1.4.4-.3.4-.3 1.6v11.5q0 1.2.3 1.6.4.4 1.4.4 1.8 0 2.8-.9 1.1-.9 1.5-2.7.5-1.7.5-4.2 0-2.6-.5-4.3-.5-1.7-1.6-2.5-1-.9-2.7-.9z" style="fill:#000"/><path aria-label="INVEST" d="M134.8.85v.5q-.8 0-1.2.2-.3.1-.5.5-.1.4-.1 1.3v11.4q0 .8.1 1.2.2.4.5.6.4.1 1.2.1v.5h-1.5q-.9-.1-1.8-.1-1.1 0-2 .1h-1.4v-.5q.7 0 1.1-.1.4-.2.5-.6.1-.4.1-1.2V3.35q0-.9-.1-1.3t-.5-.5q-.4-.2-1.1-.2v-.5q.5 0 1.4.1h3.8q.9-.1 1.5-.1zm16.6 0v.5q-.8 0-1.2.3-.4.3-.5.8-.1.6-.1 1.6v13.2q-.2-.1-.5-.1-.2 0-.5.1l-9.8-13.4v9.9q0 1.1.1 1.7.1.6.6.9.5.2 1.4.3v.5h-1.1q-.7-.1-1.3-.1-.5 0-1.1.1h-.9v-.5q.7-.1 1.1-.3.4-.3.5-.8.1-.6.1-1.6V3.35q0-.9-.1-1.3t-.5-.5q-.4-.2-1.1-.2v-.5q.3 0 .9.1h2.1q.5-.1.9-.1l8.7 11.5v-8.1q0-1.1-.2-1.7-.1-.6-.6-.9-.4-.3-1.4-.3v-.5q.4 0 1.1.1h2.4q.6-.1 1-.1zm15.9 0v.5q-.4.1-1 .7-.5.6-1 1.8l-5 13.4h-.3q-.1-.1-.3-.1-.1 0-.3.1h-.3l-5.8-14.5q-.3-.8-.7-1.1-.4-.3-.8-.3v-.5q.6 0 1.5.1h3.6q.9-.1 1.4-.1v.5q-.7 0-1.2.2-.4.1-.4.5t.3 1.2l4.2 10.9-.5.5 3.5-9.2q.6-1.5.6-2.4 0-.9-.5-1.3t-1.5-.4v-.5q.8 0 1.4.1h2.4q.4-.1.7-.1zm12.7 0q-.1 1-.1 1.9-.1.8-.1 1.3 0 .4.1.8v.7h-.5q-.2-1.6-.6-2.5-.4-.9-1.1-1.3-.7-.4-1.9-.4h-1.2q-.7 0-1.1.2-.4.1-.5.4-.1.4-.1 1.2v11.7q0 .8.1 1.2.1.3.5.5.4.1 1.1.1h1.3q1.2 0 1.9-.5.8-.4 1.3-1.4.5-1 .7-2.8h.6q-.1.8-.1 1.9v1.4q.1.9.2 1.9h-2.7q-1.5-.1-2.6-.1h-1.4q-.9 0-1.9.1H168v-.5q.7 0 1.1-.1.4-.2.5-.6.1-.4.1-1.2V3.35q0-.9-.1-1.3t-.5-.5q-.4-.2-1.1-.2v-.5q.9 0 1.9.1h7.7q1.3 0 2.4-.1zm-7.8 7.9h4.1v.4h-4.1zm4.2-3.1h.6q-.1 1.4-.1 2v2.6q0 .7.1 2h-.5q-.1-.8-.4-1.5-.2-.7-.7-1.1-.5-.5-1.5-.5v-.4q.7 0 1.2-.3.4-.3.7-.8.3-.5.4-1 .2-.5.2-1zm11.4-5.1q1.3 0 2 .3t1.2.6q.3.2.4.3h.4q.2 0 .3-.2.1-.3.2-.8h.5q0 .5-.1 1v4.1h-.5q-.1-1.2-.6-2.3-.4-1.1-1.2-1.7-.8-.8-2.1-.8-1.1 0-1.9.7-.7.7-.7 1.8 0 1 .5 1.6.4.7 1.3 1.3l2.1 1.4q1.2.7 2.1 1.5.9.7 1.4 1.5.5.9.5 2.2 0 1.5-.7 2.5-.8 1-2 1.4-1.3.5-2.7.5-1.4 0-2.2-.3-.8-.2-1.4-.5-.5-.4-.7-.4-.3 0-.4.3-.1.3-.1.8h-.6q.1-.6.1-1.3v-4.7h.5q.1 1.5.6 2.7.4 1.3 1.3 2.1t2.3.8q.8 0 1.5-.3t1-.9q.4-.6.4-1.6 0-.9-.4-1.6-.4-.7-1.2-1.4-.8-.6-1.9-1.2l-2-1.4q-.9-.7-1.5-1.6-.6-1-.6-2.2 0-1.5.7-2.4.7-.9 1.8-1.3 1.2-.5 2.4-.5zm21.2.3q-.1 1.1-.1 2.1-.1 1-.1 1.5t.1 1v.8h-.5q-.3-1.8-.8-2.9-.5-1-1.2-1.5-.8-.5-2-.5h-.7v13.2q0 .9.2 1.4.1.4.7.6.5.1 1.5.1v.5h-1.8q-1.1-.1-2.2-.1-1.2 0-2.3.1h-1.7v-.5q1 0 1.5-.1.6-.2.8-.6.1-.5.1-1.4V1.35h-.7q-1.2 0-2 .5-.7.5-1.2 1.5-.5 1.1-.8 2.9h-.5q.1-.3.1-.8v-1q0-.5-.1-1.5 0-1-.1-2.1 1 0 2.3.1h9.3q1.2-.1 2.2-.1z" style="opacity:.5;fill:#000"/></svg>